EBGaramondVF-Expanded_Xbold.ufo
<glyph name="numbersign" format="1">
  <advance width="636"/>
  <unicode hex="0023"/>
  <outline>
    <contour>
      <point x="157" y="-65" type="curve" smooth="yes"/>
      <point x="185" y="47" type="line"/>
      <point x="323" y="53" type="line"/>
      <point x="296" y="-54" type="line"/>
      <point x="296" y="-57" type="line" smooth="yes"/>
      <point x="296" y="-63"/>
      <point x="300" y="-69"/>
      <point x="306" y="-69" type="curve" smooth="yes"/>
      <point x="319" y="-69"/>
      <point x="352" y="-67"/>
      <point x="355" y="-54" type="curve" smooth="yes"/>
      <point x="382" y="55" type="line"/>
      <point x="471" y="58" type="line" smooth="yes"/>
      <point x="509" y="59"/>
      <point x="523" y="153"/>
      <point x="523" y="178" type="curve" smooth="yes"/>
      <point x="523" y="196"/>
      <point x="514" y="208"/>
      <point x="504" y="208" type="curve"/>
      <point x="418" y="205" type="line"/>
      <point x="441" y="297" type="line"/>
      <point x="526" y="300" type="line" smooth="yes"/>
      <point x="563" y="302"/>
      <point x="579" y="409"/>
      <point x="579" y="436" type="curve" smooth="yes"/>
      <point x="579" y="444"/>
      <point x="572" y="449"/>
      <point x="565" y="449" type="curve"/>
      <point x="478" y="446" type="line"/>
      <point x="504" y="552" type="line"/>
      <point x="504" y="554"/>
      <point x="505" y="555"/>
      <point x="505" y="557" type="curve" smooth="yes"/>
      <point x="505" y="563"/>
      <point x="502" y="569"/>
      <point x="497" y="569" type="curve" smooth="yes"/>
      <point x="483" y="569"/>
      <point x="448" y="566"/>
      <point x="445" y="552" type="curve" smooth="yes"/>
      <point x="419" y="443" type="line"/>
      <point x="281" y="438" type="line"/>
      <point x="306" y="541" type="line"/>
      <point x="306" y="543"/>
      <point x="307" y="545"/>
      <point x="307" y="548" type="curve" smooth="yes"/>
      <point x="306" y="553"/>
      <point x="304" y="558"/>
      <point x="296" y="558" type="curve" smooth="yes"/>
      <point x="282" y="558"/>
      <point x="251" y="555"/>
      <point x="247" y="537" type="curve" smooth="yes"/>
      <point x="222" y="436" type="line"/>
      <point x="126" y="433" type="line" smooth="yes"/>
      <point x="86" y="431"/>
      <point x="80" y="335"/>
      <point x="80" y="310" type="curve" smooth="yes"/>
      <point x="80" y="295"/>
      <point x="92" y="284"/>
      <point x="104" y="284" type="curve"/>
      <point x="185" y="287" type="line"/>
      <point x="162" y="195" type="line"/>
      <point x="68" y="192" type="line" smooth="yes"/>
      <point x="28" y="191"/>
      <point x="22" y="84"/>
      <point x="22" y="55" type="curve" smooth="yes"/>
      <point x="22" y="47"/>
      <point x="29" y="42"/>
      <point x="38" y="42" type="curve"/>
      <point x="126" y="45" type="line"/>
      <point x="99" y="-65" type="line"/>
      <point x="99" y="-68" type="line" smooth="yes"/>
      <point x="99" y="-74"/>
      <point x="103" y="-80"/>
      <point x="109" y="-80" type="curve" smooth="yes"/>
      <point x="122" y="-80"/>
      <point x="154" y="-78"/>
    </contour>
    <contour>
      <point x="244" y="289" type="line"/>
      <point x="382" y="295" type="line"/>
      <point x="360" y="203" type="line"/>
      <point x="221" y="197" type="line"/>
    </contour>
  </outline>
</glyph>
<glyph name="percent" format="1">
  <advance width="1485"/>
  <unicode hex="0025"/>
  <outline>
    <contour>
      <point x="170" y="-38" type="curve" smooth="yes"/>
      <point x="1387" y="630" type="line"/>
      <point x="1388" y="631"/>
      <point x="1389" y="634"/>
      <point x="1389" y="635" type="curve" smooth="yes"/>
      <point x="1389" y="642"/>
      <point x="1386" y="655"/>
      <point x="1377" y="658" type="curve" smooth="yes"/>
      <point x="1355" y="664"/>
      <point x="1338" y="666"/>
      <point x="1320" y="651" type="curve" smooth="yes"/>
      <point x="82" y="-25" type="line"/>
      <point x="81" y="-25"/>
      <point x="81" y="-28"/>
      <point x="80" y="-29" type="curve" smooth="yes"/>
      <point x="79" y="-36"/>
      <point x="89" y="-49"/>
      <point x="100" y="-52" type="curve" smooth="yes"/>
      <point x="119" y="-58"/>
      <point x="134" y="-59"/>
    </contour>
    <contour>
      <point x="691" y="449" type="curve" smooth="yes"/>
      <point x="691" y="530"/>
      <point x="581" y="615"/>
      <point x="380" y="615" type="curve" smooth="yes"/>
      <point x="159" y="615"/>
      <point x="19" y="527"/>
      <point x="19" y="438" type="curve" smooth="yes"/>
      <point x="19" y="354"/>
      <point x="126" y="263"/>
      <point x="335" y="263" type="curve" smooth="yes"/>
      <point x="564" y="263"/>
      <point x="691" y="358"/>
    </contour>
    <contour>
      <point x="241" y="447" type="curve" smooth="yes"/>
      <point x="241" y="498"/>
      <point x="259" y="563"/>
      <point x="354" y="563" type="curve" smooth="yes"/>
      <point x="455" y="563"/>
      <point x="469" y="493"/>
      <point x="469" y="437" type="curve" smooth="yes"/>
      <point x="469" y="382"/>
      <point x="460" y="312"/>
      <point x="360" y="312" type="curve" smooth="yes"/>
      <point x="252" y="312"/>
      <point x="241" y="389"/>
    </contour>
    <contour>
      <point x="1466" y="169" type="curve" smooth="yes"/>
      <point x="1466" y="250"/>
      <point x="1356" y="335"/>
      <point x="1155" y="335" type="curve" smooth="yes"/>
      <point x="934" y="335"/>
      <point x="794" y="247"/>
      <point x="794" y="158" type="curve" smooth="yes"/>
      <point x="794" y="74"/>
      <point x="901" y="-17"/>
      <point x="1110" y="-17" type="curve" smooth="yes"/>
      <point x="1338" y="-17"/>
      <point x="1466" y="78"/>
    </contour>
    <contour>
      <point x="1016" y="167" type="curve" smooth="yes"/>
      <point x="1016" y="218"/>
      <point x="1034" y="283"/>
      <point x="1128" y="283" type="curve" smooth="yes"/>
      <point x="1230" y="283"/>
      <point x="1244" y="213"/>
      <point x="1244" y="157" type="curve" smooth="yes"/>
      <point x="1244" y="102"/>
      <point x="1235" y="32"/>
      <point x="1134" y="32" type="curve" smooth="yes"/>
      <point x="1026" y="32"/>
      <point x="1016" y="109"/>
    </contour>
  </outline>
</glyph>
<glyph name="quotesingle" format="1">
  <advance width="311"/>
  <unicode hex="0027"/>
  <outline>
    <contour>
      <point x="131" y="386" type="curve" smooth="yes"/>
      <point x="164" y="400"/>
      <point x="231" y="444"/>
      <point x="233" y="478" type="curve" smooth="yes"/>
      <point x="238" y="519"/>
      <point x="242" y="600"/>
      <point x="227" y="647" type="curve" smooth="yes"/>
      <point x="202" y="662"/>
      <point x="182" y="672"/>
      <point x="147" y="668" type="curve"/>
      <point x="121" y="665"/>
      <point x="94" y="652"/>
      <point x="79" y="635" type="curve" smooth="yes"/>
      <point x="72" y="628"/>
      <point x="68" y="593"/>
      <point x="68" y="566" type="curve" smooth="yes"/>
      <point x="68" y="558"/>
      <point x="72" y="498"/>
      <point x="70" y="457" type="curve"/>
      <point x="70" y="437"/>
      <point x="73" y="415"/>
      <point x="80" y="396" type="curve" smooth="yes"/>
      <point x="87" y="387"/>
      <point x="110" y="381"/>
    </contour>
  </outline>
</glyph>
<glyph name="parenleft" format="1">
  <advance width="459"/>
  <unicode hex="0028"/>
  <outline>
    <contour>
      <point x="420" y="-188" type="curve" smooth="yes"/>
      <point x="420" y="-173"/>
      <point x="399" y="-154"/>
      <point x="385" y="-136" type="curve" smooth="yes"/>
      <point x="319" y="-79"/>
      <point x="210" y="111"/>
      <point x="210" y="281" type="curve" smooth="yes"/>
      <point x="210" y="438"/>
      <point x="305" y="572"/>
      <point x="381" y="625" type="curve" smooth="yes"/>
      <point x="396" y="643"/>
      <point x="420" y="659"/>
      <point x="420" y="675" type="curve" smooth="yes"/>
      <point x="420" y="693"/>
      <point x="377" y="705"/>
      <point x="350" y="705" type="curve" smooth="yes"/>
      <point x="320" y="705"/>
      <point x="281" y="689"/>
      <point x="262" y="672" type="curve" smooth="yes"/>
      <point x="184" y="624"/>
      <point x="40" y="440"/>
      <point x="40" y="269" type="curve" smooth="yes"/>
      <point x="40" y="99"/>
      <point x="175" y="-117"/>
      <point x="258" y="-178" type="curve" smooth="yes"/>
      <point x="278" y="-196"/>
      <point x="321" y="-214"/>
      <point x="354" y="-214" type="curve" smooth="yes"/>
      <point x="377" y="-214"/>
      <point x="420" y="-202"/>
    </contour>
  </outline>
</glyph>
<glyph name="asterisk" format="1">
  <advance width="441"/>
  <unicode hex="002A"/>
  <outline>
    <contour>
      <point x="263" y="395" type="curve"/>
      <point x="261" y="421"/>
      <point x="256" y="456"/>
      <point x="254" y="473" type="curve"/>
      <point x="292" y="463"/>
      <point x="323" y="450"/>
      <point x="358" y="442" type="curve" smooth="yes"/>
      <point x="379" y="437"/>
      <point x="404" y="447"/>
      <point x="404" y="466" type="curve" smooth="yes"/>
      <point x="404" y="478"/>
      <point x="397" y="488"/>
      <point x="386" y="493" type="curve"/>
      <point x="351" y="506"/>
      <point x="304" y="518"/>
      <point x="281" y="525" type="curve"/>
      <point x="371" y="569" type="line"/>
      <point x="382" y="575"/>
      <point x="385" y="589"/>
      <point x="385" y="597" type="curve" smooth="yes"/>
      <point x="385" y="610"/>
      <point x="372" y="620"/>
      <point x="359" y="620" type="curve" smooth="yes"/>
      <point x="350" y="620"/>
      <point x="335" y="615"/>
      <point x="325" y="610" type="curve"/>
      <point x="296" y="595"/>
      <point x="268" y="580"/>
      <point x="242" y="570" type="curve"/>
      <point x="234" y="641" type="line" smooth="yes"/>
      <point x="232" y="657"/>
      <point x="219" y="672"/>
      <point x="204" y="673" type="curve" smooth="yes"/>
      <point x="187" y="672"/>
      <point x="171" y="657"/>
      <point x="174" y="632" type="curve" smooth="yes"/>
      <point x="177" y="610"/>
      <point x="180" y="589"/>
      <point x="184" y="563" type="curve"/>
      <point x="146" y="574"/>
      <point x="111" y="586"/>
      <point x="82" y="594" type="curve"/>
      <point x="58" y="603"/>
      <point x="37" y="592"/>
      <point x="37" y="574" type="curve" smooth="yes"/>
      <point x="37" y="563"/>
      <point x="42" y="549"/>
      <point x="61" y="542" type="curve"/>
      <point x="93" y="533"/>
      <point x="133" y="520"/>
      <point x="157" y="511" type="curve"/>
      <point x="70" y="468" type="line"/>
      <point x="57" y="463"/>
      <point x="54" y="450"/>
      <point x="54" y="439" type="curve" smooth="yes"/>
      <point x="54" y="425"/>
      <point x="66" y="419"/>
      <point x="80" y="419" type="curve" smooth="yes"/>
      <point x="87" y="419"/>
      <point x="103" y="423"/>
      <point x="114" y="427" type="curve"/>
      <point x="144" y="439"/>
      <point x="171" y="456"/>
      <point x="196" y="465" type="curve"/>
      <point x="203" y="388" type="line" smooth="yes"/>
      <point x="205" y="374"/>
      <point x="221" y="362"/>
      <point x="234" y="362" type="curve" smooth="yes"/>
      <point x="251" y="362"/>
      <point x="265" y="378"/>
    </contour>
  </outline>
</glyph>
<glyph name="comma" format="1">
  <advance width="290"/>
  <unicode hex="002C"/>
  <outline>
    <contour>
      <point x="241" y="50" type="curve" smooth="yes"/>
      <point x="241" y="115"/>
      <point x="196" y="164"/>
      <point x="136" y="164" type="curve" smooth="yes"/>
      <point x="95" y="164"/>
      <point x="59" y="135"/>
      <point x="59" y="93" type="curve" smooth="yes"/>
      <point x="59" y="53"/>
      <point x="86" y="31"/>
      <point x="115" y="21" type="curve" smooth="yes"/>
      <point x="137" y="13"/>
      <point x="156" y="-3"/>
      <point x="156" y="-23" type="curve" smooth="yes"/>
      <point x="156" y="-75"/>
      <point x="108" y="-111"/>
      <point x="54" y="-120" type="curve" smooth="yes"/>
      <point x="43" y="-122"/>
      <point x="36" y="-128"/>
      <point x="36" y="-134" type="curve" smooth="yes"/>
      <point x="36" y="-141"/>
      <point x="44" y="-147"/>
      <point x="59" y="-147" type="curve" smooth="yes"/>
      <point x="123" y="-147"/>
      <point x="241" y="-70"/>
    </contour>
  </outline>
</glyph>
<glyph name="hyphen" format="1">
  <advance width="354"/>
  <unicode hex="002D"/>
  <outline>
    <contour>
      <point x="289" y="222" type="curve" smooth="yes"/>
      <point x="310" y="224"/>
      <point x="316" y="262"/>
      <point x="316" y="287" type="curve" smooth="yes"/>
      <point x="316" y="291"/>
      <point x="311" y="293"/>
      <point x="306" y="293" type="curve"/>
      <point x="223" y="286"/>
      <point x="141" y="277"/>
      <point x="58" y="268" type="curve"/>
      <point x="45" y="267"/>
      <point x="37" y="225"/>
      <point x="37" y="203" type="curve" smooth="yes"/>
      <point x="37" y="199"/>
      <point x="39" y="197"/>
      <point x="45" y="197" type="curve"/>
      <point x="133" y="203"/>
      <point x="212" y="214"/>
    </contour>
  </outline>
</glyph>
<glyph name="three" format="1">
  <advance width="1068"/>
  <unicode hex="0033"/>
  <outline>
    <contour>
      <point x="896" y="203" type="curve" smooth="yes"/>
      <point x="896" y="313"/>
      <point x="759" y="354"/>
      <point x="596" y="351" type="curve" smooth="yes"/>
      <point x="593" y="352"/>
      <point x="593" y="355"/>
      <point x="595" y="357" type="curve"/>
      <point x="756" y="388"/>
      <point x="834" y="446"/>
      <point x="834" y="516" type="curve" smooth="yes"/>
      <point x="834" y="584"/>
      <point x="708" y="630"/>
      <point x="578" y="630" type="curve" smooth="yes"/>
      <point x="290" y="630"/>
      <point x="197" y="535"/>
      <point x="197" y="500" type="curve" smooth="yes"/>
      <point x="197" y="490"/>
      <point x="211" y="458"/>
      <point x="244" y="458" type="curve" smooth="yes"/>
      <point x="263" y="458"/>
      <point x="302" y="560"/>
      <point x="415" y="560" type="curve" smooth="yes"/>
      <point x="486" y="560"/>
      <point x="531" y="529"/>
      <point x="531" y="478" type="curve" smooth="yes"/>
      <point x="531" y="416"/>
      <point x="439" y="372"/>
      <point x="359" y="341" type="curve" smooth="yes"/>
      <point x="331" y="334"/>
      <point x="311" y="321"/>
      <point x="309" y="290" type="curve" smooth="yes"/>
      <point x="308" y="274"/>
      <point x="323" y="263"/>
      <point x="337" y="267" type="curve" smooth="yes"/>
      <point x="369" y="279"/>
      <point x="407" y="281"/>
      <point x="428" y="281" type="curve" smooth="yes"/>
      <point x="540" y="281"/>
      <point x="591" y="215"/>
      <point x="591" y="151" type="curve" smooth="yes"/>
      <point x="591" y="82"/>
      <point x="489" y="30"/>
      <point x="386" y="30" type="curve" smooth="yes"/>
      <point x="334" y="30"/>
      <point x="300" y="44"/>
      <point x="277" y="58" type="curve" smooth="yes"/>
      <point x="261" y="68"/>
      <point x="245" y="76"/>
      <point x="226" y="76" type="curve" smooth="yes"/>
      <point x="203" y="76"/>
      <point x="173" y="43"/>
      <point x="173" y="26" type="curve" smooth="yes"/>
      <point x="173" y="-20"/>
      <point x="292" y="-38"/>
      <point x="380" y="-38" type="curve" smooth="yes"/>
      <point x="633" y="-38"/>
      <point x="896" y="53"/>
    </contour>
  </outline>
</glyph>
<glyph name="four" format="1">
  <advance width="1068"/>
  <unicode hex="0034"/>
  <outline>
    <contour>
      <point x="627" y="5" type="curve" smooth="yes"/>
      <point x="718" y="5"/>
      <point x="745" y="-5"/>
      <point x="849" y="-5" type="curve" smooth="yes"/>
      <point x="872" y="-5"/>
      <point x="890" y="5"/>
      <point x="890" y="20" type="curve" smooth="yes"/>
      <point x="890" y="37"/>
      <point x="879" y="43"/>
      <point x="856" y="50" type="curve" smooth="yes"/>
      <point x="801" y="60"/>
      <point x="766" y="83"/>
      <point x="766" y="118" type="curve" smooth="yes"/>
      <point x="766" y="164" type="line" smooth="yes"/>
      <point x="766" y="165"/>
      <point x="777" y="169"/>
      <point x="783" y="170" type="curve"/>
      <point x="793" y="171"/>
      <point x="808" y="172"/>
      <point x="823" y="172" type="curve" smooth="yes"/>
      <point x="844" y="172"/>
      <point x="867" y="171"/>
      <point x="886" y="171" type="curve" smooth="yes"/>
      <point x="891" y="171"/>
      <point x="913" y="224"/>
      <point x="913" y="240" type="curve" smooth="yes"/>
      <point x="913" y="244"/>
      <point x="907" y="248"/>
      <point x="899" y="248" type="curve"/>
      <point x="871" y="247"/>
      <point x="848" y="246"/>
      <point x="823" y="246" type="curve" smooth="yes"/>
      <point x="808" y="246"/>
      <point x="791" y="246"/>
      <point x="772" y="247" type="curve"/>
      <point x="768" y="247"/>
      <point x="766" y="250"/>
      <point x="766" y="253" type="curve" smooth="yes"/>
      <point x="766" y="347" type="line" smooth="yes"/>
      <point x="766" y="389"/>
      <point x="766" y="411"/>
      <point x="751" y="411" type="curve" smooth="yes"/>
      <point x="711" y="411"/>
      <point x="592" y="409"/>
      <point x="505" y="398" type="curve"/>
      <point x="470" y="394"/>
      <point x="466" y="390"/>
      <point x="466" y="376" type="curve" smooth="yes"/>
      <point x="466" y="253" type="line" smooth="yes"/>
      <point x="466" y="249"/>
      <point x="459" y="245"/>
      <point x="454" y="245" type="curve" smooth="yes"/>
      <point x="251" y="245" type="line" smooth="yes"/>
      <point x="245" y="245"/>
      <point x="248" y="251"/>
      <point x="251" y="254" type="curve" smooth="yes"/>
      <point x="564" y="628" type="line"/>
      <point x="564" y="628"/>
      <point x="575" y="642"/>
      <point x="567" y="642" type="curve" smooth="yes"/>
      <point x="509" y="642" type="line" smooth="yes"/>
      <point x="496" y="642"/>
      <point x="480" y="626"/>
      <point x="470" y="614" type="curve" smooth="yes"/>
      <point x="147" y="235" type="line" smooth="yes"/>
      <point x="131" y="217"/>
      <point x="124" y="205"/>
      <point x="97" y="174" type="curve"/>
      <point x="95" y="173"/>
      <point x="95" y="172"/>
      <point x="95" y="171" type="curve" smooth="yes"/>
      <point x="95" y="167"/>
      <point x="102" y="161"/>
      <point x="108" y="161" type="curve" smooth="yes"/>
      <point x="244" y="161"/>
      <point x="316" y="168"/>
      <point x="449" y="168" type="curve" smooth="yes"/>
      <point x="453" y="168"/>
      <point x="466" y="164"/>
      <point x="466" y="156" type="curve" smooth="yes"/>
      <point x="466" y="106" type="line" smooth="yes"/>
      <point x="466" y="71"/>
      <point x="453" y="56"/>
      <point x="393" y="50" type="curve" smooth="yes"/>
      <point x="370" y="45"/>
      <point x="360" y="37"/>
      <point x="360" y="20" type="curve" smooth="yes"/>
      <point x="360" y="5"/>
      <point x="383" y="-5"/>
      <point x="406" y="-5" type="curve" smooth="yes"/>
      <point x="512" y="-5"/>
      <point x="534" y="5"/>
    </contour>
  </outline>
</glyph>
<glyph name="six" format="1">
  <advance width="1068"/>
  <unicode hex="0036"/>
  <outline>
    <contour>
      <point x="1021" y="190" type="curve" smooth="yes"/>
      <point x="1021" y="286"/>
      <point x="892" y="355"/>
      <point x="749" y="355" type="curve" smooth="yes"/>
      <point x="680" y="355"/>
      <point x="580" y="329"/>
      <point x="520" y="285" type="curve" smooth="yes"/>
      <point x="500" y="272"/>
      <point x="486" y="260"/>
      <point x="473" y="246" type="curve" smooth="yes"/>
      <point x="448" y="219"/>
      <point x="455" y="187"/>
      <point x="484" y="207" type="curve" smooth="yes"/>
      <point x="515" y="225"/>
      <point x="546" y="230"/>
      <point x="596" y="230" type="curve" smooth="yes"/>
      <point x="673" y="230"/>
      <point x="727" y="190"/>
      <point x="727" y="147" type="curve" smooth="yes"/>
      <point x="727" y="90"/>
      <point x="654" y="63"/>
      <point x="573" y="64" type="curve" smooth="yes"/>
      <point x="475" y="65"/>
      <point x="363" y="119"/>
      <point x="360" y="219" type="curve" smooth="yes"/>
      <point x="357" y="309"/>
      <point x="424" y="397"/>
      <point x="499" y="463" type="curve" smooth="yes"/>
      <point x="568" y="517"/>
      <point x="656" y="559"/>
      <point x="762" y="583" type="curve" smooth="yes"/>
      <point x="772" y="585"/>
      <point x="795" y="595"/>
      <point x="798" y="616" type="curve" smooth="yes"/>
      <point x="798" y="624"/>
      <point x="791" y="644"/>
      <point x="751" y="635" type="curve" smooth="yes"/>
      <point x="610" y="619"/>
      <point x="493" y="595"/>
      <point x="382" y="541" type="curve" smooth="yes"/>
      <point x="182" y="432"/>
      <point x="56" y="304"/>
      <point x="56" y="193" type="curve" smooth="yes"/>
      <point x="56" y="53"/>
      <point x="296" y="-16"/>
      <point x="538" y="-16" type="curve" smooth="yes"/>
      <point x="766" y="-16"/>
      <point x="1021" y="65"/>
    </contour>
  </outline>
</glyph>
<glyph name="eight" format="1">
  <advance width="1068"/>
  <unicode hex="0038"/>
  <outline>
    <contour>
      <point x="934" y="164" type="curve" smooth="yes"/>
      <point x="934" y="241"/>
      <point x="868" y="288"/>
      <point x="786" y="324" type="curve" smooth="yes"/>
      <point x="772" y="331"/>
      <point x="770" y="333"/>
      <point x="793" y="345" type="curve" smooth="yes"/>
      <point x="822" y="359"/>
      <point x="833" y="371"/>
      <point x="840" y="374" type="curve" smooth="yes"/>
      <point x="870" y="395"/>
      <point x="896" y="434"/>
      <point x="896" y="496" type="curve" smooth="yes"/>
      <point x="896" y="577"/>
      <point x="725" y="630"/>
      <point x="553" y="630" type="curve" smooth="yes"/>
      <point x="364" y="630"/>
      <point x="166" y="567"/>
      <point x="166" y="489" type="curve" smooth="yes"/>
      <point x="166" y="404"/>
      <point x="228" y="383"/>
      <point x="306" y="332" type="curve" smooth="yes"/>
      <point x="317" y="324"/>
      <point x="323" y="324"/>
      <point x="310" y="319" type="curve" smooth="yes"/>
      <point x="244" y="288"/>
      <point x="134" y="237"/>
      <point x="134" y="141" type="curve" smooth="yes"/>
      <point x="134" y="49"/>
      <point x="314" y="-14"/>
      <point x="510" y="-14" type="curve" smooth="yes"/>
      <point x="721" y="-14"/>
      <point x="934" y="60"/>
    </contour>
    <contour>
      <point x="380" y="116" type="curve" smooth="yes"/>
      <point x="380" y="136"/>
      <point x="429" y="154"/>
      <point x="495" y="174" type="curve" smooth="yes"/>
      <point x="502" y="175"/>
      <point x="507" y="177"/>
      <point x="511" y="177" type="curve" smooth="yes"/>
      <point x="519" y="177"/>
      <point x="527" y="175"/>
      <point x="538" y="172" type="curve"/>
      <point x="594" y="167"/>
      <point x="666" y="139"/>
      <point x="666" y="110" type="curve" smooth="yes"/>
      <point x="666" y="83"/>
      <point x="608" y="58"/>
      <point x="529" y="58" type="curve" smooth="yes"/>
      <point x="435" y="58"/>
      <point x="380" y="93"/>
    </contour>
    <contour>
      <point x="523" y="475" type="curve"/>
      <point x="446" y="489"/>
      <point x="402" y="514"/>
      <point x="401" y="522" type="curve" smooth="yes"/>
      <point x="400" y="540"/>
      <point x="447" y="554"/>
      <point x="529" y="554" type="curve" smooth="yes"/>
      <point x="604" y="554"/>
      <point x="641" y="541"/>
      <point x="641" y="523" type="curve" smooth="yes"/>
      <point x="641" y="508"/>
      <point x="608" y="484"/>
      <point x="542" y="473" type="curve"/>
      <point x="536" y="472"/>
      <point x="529" y="474"/>
    </contour>
  </outline>
</glyph>
<glyph name="less" format="1">
  <advance width="560"/>
  <unicode hex="003C"/>
  <outline>
    <contour>
      <point x="508" y="14" type="curve" smooth="yes"/>
      <point x="508" y="27"/>
      <point x="501" y="69"/>
      <point x="474" y="82" type="curve" smooth="yes"/>
      <point x="166" y="239" type="line"/>
      <point x="163" y="241"/>
      <point x="161" y="245"/>
      <point x="165" y="247" type="curve"/>
      <point x="462" y="397" type="line" smooth="yes"/>
      <point x="490" y="412"/>
      <point x="506" y="452"/>
      <point x="506" y="470" type="curve" smooth="yes"/>
      <point x="506" y="478"/>
      <point x="502" y="483"/>
      <point x="493" y="483" type="curve" smooth="yes"/>
      <point x="491" y="483"/>
      <point x="486" y="482"/>
      <point x="482" y="480" type="curve" smooth="yes"/>
      <point x="100" y="293" type="line" smooth="yes"/>
      <point x="71" y="280"/>
      <point x="53" y="240"/>
      <point x="53" y="227" type="curve" smooth="yes"/>
      <point x="53" y="219"/>
      <point x="88" y="201"/>
      <point x="111" y="190" type="curve" smooth="yes"/>
      <point x="480" y="2" type="line" smooth="yes"/>
      <point x="489" y="-3"/>
      <point x="508" y="-4"/>
    </contour>
  </outline>
</glyph>
<glyph name="question" format="1">
  <advance width="569"/>
  <unicode hex="003F"/>
  <outline>
    <contour>
      <point x="229" y="175" type="curve" smooth="yes"/>
      <point x="230" y="201"/>
      <point x="236" y="220"/>
      <point x="281" y="239" type="curve" smooth="yes"/>
      <point x="319" y="256"/>
      <point x="350" y="263"/>
      <point x="402" y="282" type="curve" smooth="yes"/>
      <point x="442" y="295"/>
      <point x="485" y="324"/>
      <point x="485" y="382" type="curve" smooth="yes"/>
      <point x="485" y="441"/>
      <point x="427" y="539"/>
      <point x="340" y="604" type="curve" smooth="yes"/>
      <point x="289" y="641"/>
      <point x="224" y="661"/>
      <point x="173" y="661" type="curve" smooth="yes"/>
      <point x="146" y="661"/>
      <point x="121" y="643"/>
      <point x="121" y="621" type="curve" smooth="yes"/>
      <point x="121" y="592"/>
      <point x="140" y="560"/>
      <point x="169" y="560" type="curve" smooth="yes"/>
      <point x="178" y="560"/>
      <point x="187" y="562"/>
      <point x="195" y="565" type="curve" smooth="yes"/>
      <point x="203" y="567"/>
      <point x="212" y="570"/>
      <point x="221" y="570" type="curve" smooth="yes"/>
      <point x="313" y="570"/>
      <point x="370" y="531"/>
      <point x="370" y="486" type="curve" smooth="yes"/>
      <point x="370" y="466"/>
      <point x="319" y="448"/>
      <point x="280" y="438" type="curve" smooth="yes"/>
      <point x="182" y="414"/>
      <point x="128" y="370"/>
      <point x="128" y="322" type="curve" smooth="yes"/>
      <point x="128" y="269"/>
      <point x="142" y="224"/>
      <point x="149" y="196" type="curve" smooth="yes"/>
      <point x="155" y="174"/>
      <point x="173" y="154"/>
      <point x="196" y="154" type="curve" smooth="yes"/>
      <point x="215" y="154"/>
      <point x="229" y="167"/>
    </contour>
    <contour>
      <point x="324" y="37" type="curve" smooth="yes"/>
      <point x="326" y="73"/>
      <point x="289" y="93"/>
      <point x="219" y="96" type="curve" smooth="yes"/>
      <point x="150" y="99"/>
      <point x="109" y="81"/>
      <point x="107" y="45" type="curve" smooth="yes"/>
      <point x="105" y="9"/>
      <point x="142" y="-11"/>
      <point x="211" y="-13" type="curve" smooth="yes"/>
      <point x="281" y="-15"/>
      <point x="322" y="2"/>
    </contour>
  </outline>
</glyph>
<glyph name="C" format="1">
  <advance width="1115"/>
  <unicode hex="0043"/>
  <outline>
    <contour>
      <point x="977" y="13" type="curve" smooth="yes"/>
      <point x="1002" y="23"/>
      <point x="1006" y="22"/>
      <point x="1017" y="46" type="curve" smooth="yes"/>
      <point x="1032" y="81"/>
      <point x="1043" y="149"/>
      <point x="1044" y="168" type="curve" smooth="yes"/>
      <point x="1047" y="201"/>
      <point x="1002" y="213"/>
      <point x="982" y="175" type="curve" smooth="yes"/>
      <point x="943" y="101"/>
      <point x="887" y="59"/>
      <point x="739" y="59" type="curve" smooth="yes"/>
      <point x="503" y="59"/>
      <point x="375" y="198"/>
      <point x="375" y="343" type="curve" smooth="yes"/>
      <point x="375" y="468"/>
      <point x="523" y="586"/>
      <point x="730" y="586" type="curve" smooth="yes"/>
      <point x="829" y="586"/>
      <point x="889" y="578"/>
      <point x="926" y="558" type="curve" smooth="yes"/>
      <point x="961" y="539"/>
      <point x="976" y="512"/>
      <point x="993" y="469" type="curve" smooth="yes"/>
      <point x="1005" y="434"/>
      <point x="1047" y="447"/>
      <point x="1045" y="471" type="curve" smooth="yes"/>
      <point x="1040" y="523"/>
      <point x="1031" y="573"/>
      <point x="1028" y="604" type="curve" smooth="yes"/>
      <point x="1026" y="622"/>
      <point x="1017" y="632"/>
      <point x="992" y="638" type="curve" smooth="yes"/>
      <point x="910" y="657"/>
      <point x="861" y="664"/>
      <point x="764" y="664" type="curve" smooth="yes"/>
      <point x="381" y="664"/>
      <point x="59" y="539"/>
      <point x="59" y="323" type="curve" smooth="yes"/>
      <point x="59" y="107"/>
      <point x="373" y="-16"/>
      <point x="732" y="-16" type="curve" smooth="yes"/>
      <point x="814" y="-16"/>
      <point x="914" y="-6"/>
    </contour>
  </outline>
</glyph>
<glyph name="H" format="1">
  <advance width="1491"/>
  <unicode hex="0048"/>
  <outline>
    <contour>
      <point x="307" y="5" type="curve" smooth="yes"/>
      <point x="401" y="5"/>
      <point x="432" y="-4"/>
      <point x="543" y="-4" type="curve" smooth="yes"/>
      <point x="562" y="-4"/>
      <point x="574" y="5"/>
      <point x="574" y="20" type="curve" smooth="yes"/>
      <point x="574" y="37"/>
      <point x="564" y="44"/>
      <point x="538" y="51" type="curve" smooth="yes"/>
      <point x="483" y="61"/>
      <point x="454" y="93"/>
      <point x="454" y="145" type="curve" smooth="yes"/>
      <point x="454" y="277" type="line" smooth="yes"/>
      <point x="454" y="287"/>
      <point x="456" y="290"/>
      <point x="461" y="290" type="curve" smooth="yes"/>
      <point x="1027" y="290" type="line" smooth="yes"/>
      <point x="1032" y="290"/>
      <point x="1034" y="290"/>
      <point x="1034" y="280" type="curve" smooth="yes"/>
      <point x="1034" y="151" type="line" smooth="yes"/>
      <point x="1034" y="88"/>
      <point x="1016" y="61"/>
      <point x="959" y="49" type="curve" smooth="yes"/>
      <point x="933" y="44"/>
      <point x="923" y="37"/>
      <point x="923" y="20" type="curve" smooth="yes"/>
      <point x="923" y="5"/>
      <point x="934" y="-4"/>
      <point x="954" y="-4" type="curve" smooth="yes"/>
      <point x="1070" y="-4"/>
      <point x="1091" y="5"/>
      <point x="1182" y="5" type="curve" smooth="yes"/>
      <point x="1271" y="5"/>
      <point x="1288" y="-4"/>
      <point x="1407" y="-4" type="curve" smooth="yes"/>
      <point x="1427" y="-4"/>
      <point x="1440" y="5"/>
      <point x="1440" y="20" type="curve" smooth="yes"/>
      <point x="1440" y="37"/>
      <point x="1429" y="44"/>
      <point x="1401" y="51" type="curve" smooth="yes"/>
      <point x="1344" y="62"/>
      <point x="1334" y="81"/>
      <point x="1334" y="138" type="curve" smooth="yes"/>
      <point x="1334" y="516" type="line" smooth="yes"/>
      <point x="1334" y="577"/>
      <point x="1342" y="592"/>
      <point x="1399" y="601" type="curve" smooth="yes"/>
      <point x="1427" y="606"/>
      <point x="1437" y="615"/>
      <point x="1437" y="632" type="curve" smooth="yes"/>
      <point x="1437" y="647"/>
      <point x="1425" y="657"/>
      <point x="1405" y="657" type="curve" smooth="yes"/>
      <point x="1285" y="657"/>
      <point x="1275" y="647"/>
      <point x="1190" y="647" type="curve" smooth="yes"/>
      <point x="1095" y="647"/>
      <point x="1069" y="657"/>
      <point x="952" y="657" type="curve" smooth="yes"/>
      <point x="932" y="657"/>
      <point x="922" y="647"/>
      <point x="922" y="632" type="curve" smooth="yes"/>
      <point x="922" y="615"/>
      <point x="932" y="609"/>
      <point x="957" y="604" type="curve" smooth="yes"/>
      <point x="1009" y="596"/>
      <point x="1034" y="574"/>
      <point x="1034" y="521" type="curve" smooth="yes"/>
      <point x="1034" y="371" type="line" smooth="yes"/>
      <point x="1034" y="363"/>
      <point x="1023" y="362"/>
      <point x="1016" y="362" type="curve" smooth="yes"/>
      <point x="468" y="362" type="line" smooth="yes"/>
      <point x="462" y="362"/>
      <point x="454" y="364"/>
      <point x="454" y="374" type="curve" smooth="yes"/>
      <point x="454" y="522" type="line" smooth="yes"/>
      <point x="454" y="566"/>
      <point x="486" y="593"/>
      <point x="540" y="601" type="curve" smooth="yes"/>
      <point x="567" y="606"/>
      <point x="576" y="615"/>
      <point x="576" y="632" type="curve" smooth="yes"/>
      <point x="576" y="647"/>
      <point x="564" y="657"/>
      <point x="545" y="657" type="curve" smooth="yes"/>
      <point x="432" y="657"/>
      <point x="404" y="647"/>
      <point x="308" y="647" type="curve" smooth="yes"/>
      <point x="218" y="647"/>
      <point x="197" y="657"/>
      <point x="79" y="657" type="curve" smooth="yes"/>
      <point x="60" y="657"/>
      <point x="46" y="647"/>
      <point x="46" y="632" type="curve" smooth="yes"/>
      <point x="46" y="615"/>
      <point x="57" y="609"/>
      <point x="85" y="601" type="curve" smooth="yes"/>
      <point x="140" y="586"/>
      <point x="154" y="572"/>
      <point x="154" y="517" type="curve" smooth="yes"/>
      <point x="154" y="139" type="line" smooth="yes"/>
      <point x="154" y="81"/>
      <point x="143" y="62"/>
      <point x="86" y="51" type="curve" smooth="yes"/>
      <point x="59" y="44"/>
      <point x="48" y="37"/>
      <point x="48" y="20" type="curve" smooth="yes"/>
      <point x="48" y="5"/>
      <point x="60" y="-4"/>
      <point x="80" y="-4" type="curve" smooth="yes"/>
      <point x="195" y="-4"/>
      <point x="218" y="5"/>
    </contour>
  </outline>
</glyph>
<glyph name="J" format="1">
  <advance width="568"/>
  <unicode hex="004A"/>
  <outline>
    <contour>
      <point x="309" y="-149" type="curve" smooth="yes"/>
      <point x="382" y="-103"/>
      <point x="448" y="-32"/>
      <point x="448" y="64" type="curve" smooth="yes"/>
      <point x="447" y="500" type="line" smooth="yes"/>
      <point x="447" y="562"/>
      <point x="482" y="582"/>
      <point x="540" y="594" type="curve" smooth="yes"/>
      <point x="566" y="602"/>
      <point x="578" y="615"/>
      <point x="578" y="632" type="curve" smooth="yes"/>
      <point x="578" y="647"/>
      <point x="564" y="653"/>
      <point x="546" y="653" type="curve" smooth="yes"/>
      <point x="433" y="653"/>
      <point x="401" y="647"/>
      <point x="308" y="647" type="curve" smooth="yes"/>
      <point x="212" y="647"/>
      <point x="177" y="653"/>
      <point x="64" y="653" type="curve" smooth="yes"/>
      <point x="45" y="653"/>
      <point x="32" y="647"/>
      <point x="32" y="632" type="curve" smooth="yes"/>
      <point x="32" y="615"/>
      <point x="42" y="602"/>
      <point x="70" y="594" type="curve" smooth="yes"/>
      <point x="129" y="582"/>
      <point x="147" y="562"/>
      <point x="147" y="500" type="curve" smooth="yes"/>
      <point x="147" y="17" type="line" smooth="yes"/>
      <point x="147" y="-74"/>
      <point x="104" y="-132"/>
      <point x="39" y="-132" type="curve" smooth="yes"/>
      <point x="5" y="-132"/>
      <point x="-14" y="-124"/>
      <point x="-29" y="-118" type="curve" smooth="yes"/>
      <point x="-43" y="-112"/>
      <point x="-54" y="-104"/>
      <point x="-76" y="-104" type="curve" smooth="yes"/>
      <point x="-102" y="-104"/>
      <point x="-121" y="-126"/>
      <point x="-121" y="-149" type="curve" smooth="yes"/>
      <point x="-121" y="-183"/>
      <point x="-58" y="-200"/>
      <point x="88" y="-200" type="curve" smooth="yes"/>
      <point x="182" y="-200"/>
      <point x="248" y="-181"/>
    </contour>
  </outline>
</glyph>
<glyph name="N" format="1">
  <advance width="1271"/>
  <unicode hex="004E"/>
  <outline>
    <contour>
      <point x="1150" y="8" type="curve" smooth="yes"/>
      <point x="1150" y="21"/>
      <point x="1143" y="57"/>
      <point x="1143" y="105" type="curve" smooth="yes"/>
      <point x="1143" y="245"/>
      <point x="1149" y="444"/>
      <point x="1156" y="502" type="curve" smooth="yes"/>
      <point x="1162" y="557"/>
      <point x="1181" y="586"/>
      <point x="1224" y="594" type="curve" smooth="yes"/>
      <point x="1249" y="599"/>
      <point x="1258" y="611"/>
      <point x="1258" y="628" type="curve" smooth="yes"/>
      <point x="1258" y="645"/>
      <point x="1246" y="650"/>
      <point x="1229" y="650" type="curve" smooth="yes"/>
      <point x="1161" y="650"/>
      <point x="1152" y="645"/>
      <point x="1114" y="645" type="curve" smooth="yes"/>
      <point x="1060" y="645"/>
      <point x="1050" y="650"/>
      <point x="1004" y="650" type="curve" smooth="yes"/>
      <point x="989" y="650"/>
      <point x="976" y="644"/>
      <point x="976" y="628" type="curve" smooth="yes"/>
      <point x="976" y="610"/>
      <point x="989" y="599"/>
      <point x="1014" y="594" type="curve" smooth="yes"/>
      <point x="1063" y="581"/>
      <point x="1080" y="546"/>
      <point x="1080" y="501" type="curve"/>
      <point x="1080" y="406"/>
      <point x="1077" y="253"/>
      <point x="1076" y="174" type="curve"/>
      <point x="1075" y="159"/>
      <point x="1070" y="153"/>
      <point x="1063" y="153" type="curve" smooth="yes"/>
      <point x="1053" y="153"/>
      <point x="1037" y="167"/>
      <point x="1031" y="173" type="curve" smooth="yes"/>
      <point x="1005" y="197"/>
      <point x="552" y="600"/>
      <point x="525" y="629" type="curve"/>
      <point x="508" y="649"/>
      <point x="487" y="653"/>
      <point x="452" y="653" type="curve" smooth="yes"/>
      <point x="250" y="653"/>
      <point x="254" y="656"/>
      <point x="42" y="658" type="curve" smooth="yes"/>
      <point x="34" y="658"/>
      <point x="15" y="655"/>
      <point x="15" y="636" type="curve" smooth="yes"/>
      <point x="15" y="618"/>
      <point x="36" y="602"/>
      <point x="65" y="592" type="curve" smooth="yes"/>
      <point x="116" y="578"/>
      <point x="149" y="556"/>
      <point x="149" y="490" type="curve" smooth="yes"/>
      <point x="149" y="349"/>
      <point x="143" y="209"/>
      <point x="136" y="146" type="curve" smooth="yes"/>
      <point x="129" y="90"/>
      <point x="114" y="60"/>
      <point x="72" y="51" type="curve" smooth="yes"/>
      <point x="47" y="46"/>
      <point x="37" y="34"/>
      <point x="37" y="17" type="curve" smooth="yes"/>
      <point x="37" y="1"/>
      <point x="48" y="-5"/>
      <point x="65" y="-5" type="curve" smooth="yes"/>
      <point x="130" y="-5"/>
      <point x="131" y="0"/>
      <point x="172" y="0" type="curve" smooth="yes"/>
      <point x="214" y="0"/>
      <point x="217" y="-5"/>
      <point x="284" y="-5" type="curve" smooth="yes"/>
      <point x="301" y="-5"/>
      <point x="313" y="1"/>
      <point x="313" y="17" type="curve" smooth="yes"/>
      <point x="313" y="35"/>
      <point x="304" y="46"/>
      <point x="280" y="51" type="curve" smooth="yes"/>
      <point x="226" y="65"/>
      <point x="213" y="104"/>
      <point x="213" y="148" type="curve" smooth="yes"/>
      <point x="213" y="253"/>
      <point x="219" y="397"/>
      <point x="218" y="481" type="curve" smooth="yes"/>
      <point x="218" y="489"/>
      <point x="221" y="502"/>
      <point x="230" y="502" type="curve" smooth="yes"/>
      <point x="236" y="502"/>
      <point x="244" y="498"/>
      <point x="257" y="486" type="curve" smooth="yes"/>
      <point x="287" y="458"/>
      <point x="714" y="74"/>
      <point x="739" y="46" type="curve" smooth="yes"/>
      <point x="780" y="1"/>
      <point x="905" y="-17"/>
      <point x="1007" y="-17" type="curve" smooth="yes"/>
      <point x="1087" y="-17"/>
      <point x="1150" y="-13"/>
    </contour>
  </outline>
</glyph>
<glyph name="R" format="1">
  <advance width="1340"/>
  <unicode hex="0052"/>
  <outline>
    <contour>
      <point x="1354" y="33" type="curve" smooth="yes"/>
      <point x="1354" y="46"/>
      <point x="1348" y="49"/>
      <point x="1335" y="49" type="curve" smooth="yes"/>
      <point x="1274" y="49"/>
      <point x="1232" y="51"/>
      <point x="1186" y="80" type="curve" smooth="yes"/>
      <point x="1055" y="159"/>
      <point x="1001" y="226"/>
      <point x="921" y="311" type="curve" smooth="yes"/>
      <point x="916" y="317"/>
      <point x="915" y="322"/>
      <point x="921" y="324" type="curve"/>
      <point x="992" y="352"/>
      <point x="1077" y="403"/>
      <point x="1077" y="493" type="curve" smooth="yes"/>
      <point x="1077" y="615"/>
      <point x="884" y="657"/>
      <point x="481" y="657" type="curve" smooth="yes"/>
      <point x="379" y="657"/>
      <point x="345" y="652"/>
      <point x="278" y="652" type="curve" smooth="yes"/>
      <point x="208" y="652"/>
      <point x="191" y="657"/>
      <point x="94" y="657" type="curve" smooth="yes"/>
      <point x="68" y="657"/>
      <point x="49" y="647"/>
      <point x="49" y="632" type="curve" smooth="yes"/>
      <point x="49" y="615"/>
      <point x="59" y="609"/>
      <point x="84" y="601" type="curve" smooth="yes"/>
      <point x="138" y="587"/>
      <point x="154" y="571"/>
      <point x="154" y="514" type="curve" smooth="yes"/>
      <point x="154" y="139" type="line" smooth="yes"/>
      <point x="154" y="81"/>
      <point x="146" y="62"/>
      <point x="85" y="50" type="curve" smooth="yes"/>
      <point x="60" y="43"/>
      <point x="50" y="37"/>
      <point x="50" y="20" type="curve" smooth="yes"/>
      <point x="50" y="4"/>
      <point x="73" y="-5"/>
      <point x="104" y="-5" type="curve" smooth="yes"/>
      <point x="201" y="-5"/>
      <point x="238" y="4"/>
      <point x="318" y="4" type="curve" smooth="yes"/>
      <point x="390" y="4"/>
      <point x="434" y="-5"/>
      <point x="521" y="-5" type="curve" smooth="yes"/>
      <point x="554" y="-5"/>
      <point x="576" y="4"/>
      <point x="576" y="20" type="curve" smooth="yes"/>
      <point x="576" y="37"/>
      <point x="566" y="43"/>
      <point x="540" y="50" type="curve" smooth="yes"/>
      <point x="485" y="60"/>
      <point x="454" y="95"/>
      <point x="454" y="147" type="curve" smooth="yes"/>
      <point x="454" y="275" type="line" smooth="yes"/>
      <point x="454" y="287"/>
      <point x="462" y="295"/>
      <point x="482" y="294" type="curve" smooth="yes"/>
      <point x="548" y="292"/>
      <point x="591" y="288"/>
      <point x="630" y="274" type="curve" smooth="yes"/>
      <point x="657" y="264"/>
      <point x="674" y="255"/>
      <point x="688" y="236" type="curve" smooth="yes"/>
      <point x="768" y="134"/>
      <point x="799" y="102"/>
      <point x="875" y="47" type="curve" smooth="yes"/>
      <point x="939" y="-9"/>
      <point x="1060" y="-21"/>
      <point x="1181" y="-21" type="curve" smooth="yes"/>
      <point x="1235" y="-21"/>
      <point x="1354" y="-15"/>
    </contour>
    <contour>
      <point x="454" y="388" type="curve" smooth="yes"/>
      <point x="454" y="448"/>
      <point x="455" y="490"/>
      <point x="457" y="514" type="curve" smooth="yes"/>
      <point x="462" y="566"/>
      <point x="475" y="584"/>
      <point x="546" y="584" type="curve" smooth="yes"/>
      <point x="751" y="584"/>
      <point x="787" y="538"/>
      <point x="787" y="472" type="curve" smooth="yes"/>
      <point x="787" y="412"/>
      <point x="694" y="362"/>
      <point x="541" y="362" type="curve" smooth="yes"/>
      <point x="487" y="362"/>
      <point x="454" y="364"/>
    </contour>
  </outline>
</glyph>
<glyph name="S" format="1">
  <advance width="647"/>
  <unicode hex="0053"/>
  <outline>
    <contour>
      <point x="603" y="235" type="curve" smooth="yes"/>
      <point x="603" y="341"/>
      <point x="537" y="397"/>
      <point x="379" y="439" type="curve" smooth="yes"/>
      <point x="252" y="468"/>
      <point x="214" y="493"/>
      <point x="214" y="528" type="curve" smooth="yes"/>
      <point x="214" y="564"/>
      <point x="264" y="585"/>
      <point x="351" y="585" type="curve" smooth="yes"/>
      <point x="433" y="585"/>
      <point x="508" y="571"/>
      <point x="535" y="503" type="curve" smooth="yes"/>
      <point x="540" y="488"/>
      <point x="554" y="485"/>
      <point x="566" y="485" type="curve" smooth="yes"/>
      <point x="574" y="485"/>
      <point x="593" y="488"/>
      <point x="593" y="504" type="curve" smooth="yes"/>
      <point x="593" y="534"/>
      <point x="579" y="581"/>
      <point x="568" y="615" type="curve" smooth="yes"/>
      <point x="564" y="628"/>
      <point x="551" y="638"/>
      <point x="537" y="642" type="curve" smooth="yes"/>
      <point x="506" y="651"/>
      <point x="464" y="664"/>
      <point x="387" y="664" type="curve" smooth="yes"/>
      <point x="155" y="664"/>
      <point x="77" y="566"/>
      <point x="77" y="444" type="curve" smooth="yes"/>
      <point x="77" y="314"/>
      <point x="167" y="268"/>
      <point x="326" y="232" type="curve" smooth="yes"/>
      <point x="441" y="209"/>
      <point x="476" y="183"/>
      <point x="476" y="142" type="curve" smooth="yes"/>
      <point x="476" y="98"/>
      <point x="420" y="61"/>
      <point x="329" y="61" type="curve" smooth="yes"/>
      <point x="218" y="61"/>
      <point x="141" y="77"/>
      <point x="103" y="160" type="curve" smooth="yes"/>
      <point x="99" y="170"/>
      <point x="91" y="176"/>
      <point x="79" y="176" type="curve" smooth="yes"/>
      <point x="63" y="176"/>
      <point x="50" y="167"/>
      <point x="52" y="157" type="curve"/>
      <point x="54" y="129"/>
      <point x="57" y="79"/>
      <point x="66" y="52" type="curve" smooth="yes"/>
      <point x="68" y="44"/>
      <point x="77" y="36"/>
      <point x="84" y="32" type="curve"/>
      <point x="138" y="2"/>
      <point x="215" y="-16"/>
      <point x="295" y="-16" type="curve" smooth="yes"/>
      <point x="480" y="-16"/>
      <point x="603" y="77"/>
    </contour>
  </outline>
</glyph>
<glyph name="e" format="1">
  <advance width="734"/>
  <unicode hex="0065"/>
  <outline>
    <contour>
      <point x="647" y="18" type="curve" smooth="yes"/>
      <point x="685" y="38"/>
      <point x="709" y="72"/>
      <point x="709" y="108" type="curve" smooth="yes"/>
      <point x="709" y="119"/>
      <point x="704" y="129"/>
      <point x="689" y="129" type="curve" smooth="yes"/>
      <point x="678" y="129"/>
      <point x="672" y="124"/>
      <point x="657" y="106" type="curve" smooth="yes"/>
      <point x="614" y="67"/>
      <point x="557" y="45"/>
      <point x="492" y="45" type="curve" smooth="yes"/>
      <point x="340" y="45"/>
      <point x="247" y="124"/>
      <point x="247" y="233" type="curve" smooth="yes"/>
      <point x="247" y="267"/>
      <point x="256" y="275"/>
      <point x="281" y="275" type="curve" smooth="yes"/>
      <point x="639" y="275" type="line" smooth="yes"/>
      <point x="679" y="275"/>
      <point x="697" y="286"/>
      <point x="697" y="311" type="curve" smooth="yes"/>
      <point x="697" y="403"/>
      <point x="589" y="465"/>
      <point x="432" y="465" type="curve" smooth="yes"/>
      <point x="215" y="465"/>
      <point x="39" y="360"/>
      <point x="39" y="228" type="curve" smooth="yes"/>
      <point x="39" y="82"/>
      <point x="188" y="-16"/>
      <point x="419" y="-16" type="curve" smooth="yes"/>
      <point x="506" y="-16"/>
      <point x="590" y="-5"/>
    </contour>
    <contour>
      <point x="274" y="332" type="curve" smooth="yes"/>
      <point x="274" y="366"/>
      <point x="349" y="406"/>
      <point x="415" y="406" type="curve" smooth="yes"/>
      <point x="486" y="406"/>
      <point x="537" y="379"/>
      <point x="537" y="346" type="curve" smooth="yes"/>
      <point x="537" y="334"/>
      <point x="534" y="328"/>
      <point x="525" y="327" type="curve" smooth="yes"/>
      <point x="494" y="324"/>
      <point x="465" y="322"/>
      <point x="420" y="322" type="curve" smooth="yes"/>
      <point x="291" y="322" type="line" smooth="yes"/>
      <point x="280" y="322"/>
      <point x="274" y="325"/>
    </contour>
  </outline>
</glyph>
<glyph name="g" format="1">
  <advance width="839"/>
  <unicode hex="0067"/>
  <outline>
    <contour>
      <point x="830" y="-73" type="curve" smooth="yes"/>
      <point x="830" y="11"/>
      <point x="725" y="36"/>
      <point x="457" y="52" type="curve" smooth="yes"/>
      <point x="316" y="60"/>
      <point x="194" y="69"/>
      <point x="204" y="96" type="curve" smooth="yes"/>
      <point x="204" y="108"/>
      <point x="241" y="127"/>
      <point x="285" y="139" type="curve"/>
      <point x="187" y="164" type="line"/>
      <point x="172" y="144"/>
      <point x="165" y="141"/>
      <point x="102" y="101" type="curve" smooth="yes"/>
      <point x="79" y="86"/>
      <point x="70" y="74"/>
      <point x="70" y="59" type="curve" smooth="yes"/>
      <point x="70" y="-22"/>
      <point x="130" y="-52"/>
      <point x="412" y="-74" type="curve" smooth="yes"/>
      <point x="564" y="-82"/>
      <point x="623" y="-87"/>
      <point x="623" y="-125" type="curve" smooth="yes"/>
      <point x="623" y="-159"/>
      <point x="594" y="-189"/>
      <point x="548" y="-207" type="curve" smooth="yes"/>
      <point x="516" y="-220"/>
      <point x="466" y="-227"/>
      <point x="408" y="-227" type="curve" smooth="yes"/>
      <point x="310" y="-227"/>
      <point x="239" y="-204"/>
      <point x="239" y="-159" type="curve" smooth="yes"/>
      <point x="239" y="-92"/>
      <point x="275" y="-62"/>
      <point x="363" y="-24" type="curve"/>
      <point x="301" y="0" type="line"/>
      <point x="221" y="-32"/>
      <point x="140" y="-62"/>
      <point x="94" y="-82" type="curve" smooth="yes"/>
      <point x="39" y="-103"/>
      <point x="14" y="-128"/>
      <point x="14" y="-168" type="curve" smooth="yes"/>
      <point x="14" y="-243"/>
      <point x="154" y="-290"/>
      <point x="383" y="-290" type="curve" smooth="yes"/>
      <point x="599" y="-290"/>
      <point x="830" y="-178"/>
    </contour>
    <contour>
      <point x="268" y="298" type="curve" smooth="yes"/>
      <point x="268" y="358"/>
      <point x="330" y="407"/>
      <point x="403" y="407" type="curve" smooth="yes"/>
      <point x="486" y="407"/>
      <point x="546" y="367"/>
      <point x="546" y="303" type="curve" smooth="yes"/>
      <point x="546" y="231"/>
      <point x="490" y="178"/>
      <point x="413" y="178" type="curve" smooth="yes"/>
      <point x="332" y="178"/>
      <point x="268" y="229"/>
    </contour>
    <contour>
      <point x="727" y="307" type="curve" smooth="yes"/>
      <point x="727" y="331"/>
      <point x="730" y="350"/>
      <point x="736" y="359" type="curve" smooth="yes"/>
      <point x="738" y="363"/>
      <point x="753" y="366"/>
      <point x="778" y="366" type="curve" smooth="yes"/>
      <point x="816" y="366" type="line"/>
      <point x="819" y="366"/>
      <point x="823" y="370"/>
      <point x="828" y="376" type="curve" smooth="yes"/>
      <point x="836" y="388"/>
      <point x="842" y="399"/>
      <point x="842" y="407" type="curve" smooth="yes"/>
      <point x="842" y="423"/>
      <point x="830" y="434"/>
      <point x="817" y="434" type="curve" smooth="yes"/>
      <point x="797" y="434"/>
      <point x="742" y="431"/>
      <point x="711" y="431" type="curve" smooth="yes"/>
      <point x="672" y="431"/>
      <point x="643" y="432"/>
      <point x="582" y="442" type="curve" smooth="yes"/>
      <point x="528" y="451"/>
      <point x="478" y="466"/>
      <point x="403" y="466" type="curve" smooth="yes"/>
      <point x="228" y="466"/>
      <point x="68" y="392"/>
      <point x="68" y="286" type="curve" smooth="yes"/>
      <point x="68" y="192"/>
      <point x="221" y="113"/>
      <point x="380" y="113" type="curve" smooth="yes"/>
      <point x="625" y="113"/>
      <point x="727" y="204"/>
    </contour>
  </outline>
</glyph>
<glyph name="q" format="1">
  <advance width="954"/>
  <unicode hex="0071"/>
  <outline>
    <contour>
      <point x="764" y="-280" type="curve" smooth="yes"/>
      <point x="827" y="-280"/>
      <point x="849" y="-285"/>
      <point x="919" y="-285" type="curve" smooth="yes"/>
      <point x="934" y="-285"/>
      <point x="954" y="-282"/>
      <point x="954" y="-264" type="curve" smooth="yes"/>
      <point x="954" y="-251"/>
      <point x="944" y="-242"/>
      <point x="928" y="-235" type="curve"/>
      <point x="905" y="-224"/>
      <point x="874" y="-223"/>
      <point x="874" y="-179" type="curve" smooth="yes"/>
      <point x="874" y="331" type="line" smooth="yes"/>
      <point x="874" y="395"/>
      <point x="897" y="446"/>
      <point x="897" y="461" type="curve" smooth="yes"/>
      <point x="897" y="466"/>
      <point x="869" y="472"/>
      <point x="853" y="472" type="curve" smooth="yes"/>
      <point x="844" y="472"/>
      <point x="837" y="470"/>
      <point x="832" y="463" type="curve"/>
      <point x="822" y="451"/>
      <point x="811" y="433"/>
      <point x="787" y="433" type="curve" smooth="yes"/>
      <point x="774" y="433"/>
      <point x="672" y="464"/>
      <point x="544" y="464" type="curve" smooth="yes"/>
      <point x="247" y="464"/>
      <point x="45" y="358"/>
      <point x="45" y="200" type="curve" smooth="yes"/>
      <point x="45" y="61"/>
      <point x="208" y="-14"/>
      <point x="405" y="-14" type="curve" smooth="yes"/>
      <point x="500" y="-14"/>
      <point x="606" y="31"/>
      <point x="634" y="45" type="curve" smooth="yes"/>
      <point x="639" y="49"/>
      <point x="644" y="48"/>
      <point x="649" y="48" type="curve" smooth="yes"/>
      <point x="657" y="48"/>
      <point x="659" y="40"/>
      <point x="659" y="14" type="curve" smooth="yes"/>
      <point x="659" y="-178" type="line" smooth="yes"/>
      <point x="659" y="-209"/>
      <point x="641" y="-220"/>
      <point x="614" y="-234" type="curve"/>
      <point x="598" y="-241"/>
      <point x="586" y="-248"/>
      <point x="586" y="-267" type="curve" smooth="yes"/>
      <point x="586" y="-282"/>
      <point x="607" y="-285"/>
      <point x="621" y="-285" type="curve" smooth="yes"/>
      <point x="692" y="-285"/>
      <point x="702" y="-280"/>
    </contour>
    <contour>
      <point x="262" y="216" type="curve" smooth="yes"/>
      <point x="262" y="320"/>
      <point x="366" y="377"/>
      <point x="476" y="377" type="curve" smooth="yes"/>
      <point x="632" y="377"/>
      <point x="655" y="331"/>
      <point x="659" y="280" type="curve" smooth="yes"/>
      <point x="660" y="256"/>
      <point x="660" y="136"/>
      <point x="660" y="104" type="curve"/>
      <point x="634" y="86"/>
      <point x="566" y="65"/>
      <point x="499" y="65" type="curve" smooth="yes"/>
      <point x="384" y="65"/>
      <point x="262" y="101"/>
    </contour>
  </outline>
</glyph>
<glyph name="s" format="1">
  <advance width="590"/>
  <unicode hex="0073"/>
  <outline>
    <contour>
      <point x="548" y="120" type="curve" smooth="yes"/>
      <point x="548" y="188"/>
      <point x="498" y="224"/>
      <point x="399" y="271" type="curve" smooth="yes"/>
      <point x="318" y="307"/>
      <point x="296" y="325"/>
      <point x="296" y="358" type="curve" smooth="yes"/>
      <point x="296" y="396"/>
      <point x="327" y="417"/>
      <point x="395" y="417" type="curve" smooth="yes"/>
      <point x="458" y="417"/>
      <point x="477" y="401"/>
      <point x="497" y="357" type="curve" smooth="yes"/>
      <point x="500" y="351"/>
      <point x="507" y="345"/>
      <point x="520" y="345" type="curve" smooth="yes"/>
      <point x="529" y="345"/>
      <point x="536" y="351"/>
      <point x="536" y="355" type="curve" smooth="yes"/>
      <point x="536" y="379"/>
      <point x="525" y="428"/>
      <point x="513" y="443" type="curve"/>
      <point x="487" y="456"/>
      <point x="427" y="464"/>
      <point x="340" y="464" type="curve" smooth="yes"/>
      <point x="141" y="464"/>
      <point x="58" y="412"/>
      <point x="58" y="338" type="curve" smooth="yes"/>
      <point x="58" y="282"/>
      <point x="91" y="245"/>
      <point x="190" y="199" type="curve" smooth="yes"/>
      <point x="276" y="160"/>
      <point x="302" y="133"/>
      <point x="302" y="96" type="curve" smooth="yes"/>
      <point x="302" y="56"/>
      <point x="257" y="34"/>
      <point x="195" y="34" type="curve" smooth="yes"/>
      <point x="123" y="34"/>
      <point x="92" y="45"/>
      <point x="76" y="109" type="curve"/>
      <point x="73" y="124"/>
      <point x="64" y="126"/>
      <point x="56" y="126" type="curve" smooth="yes"/>
      <point x="44" y="126"/>
      <point x="35" y="123"/>
      <point x="35" y="111" type="curve"/>
      <point x="36" y="86"/>
      <point x="40" y="40"/>
      <point x="49" y="25" type="curve"/>
      <point x="99" y="0"/>
      <point x="174" y="-14"/>
      <point x="255" y="-14" type="curve" smooth="yes"/>
      <point x="438" y="-14"/>
      <point x="548" y="39"/>
    </contour>
  </outline>
</glyph>
<glyph name="w" format="1">
  <advance width="1201"/>
  <unicode hex="0077"/>
  <outline>
    <contour>
      <point x="455" y="-16" type="curve"/>
      <point x="599" y="286" type="line" smooth="yes"/>
      <point x="603" y="293"/>
      <point x="605" y="296"/>
      <point x="608" y="296" type="curve" smooth="yes"/>
      <point x="611" y="295"/>
      <point x="613" y="292"/>
      <point x="615" y="287" type="curve" smooth="yes"/>
      <point x="753" y="-16" type="line"/>
      <point x="774" y="-20"/>
      <point x="807" y="-23"/>
      <point x="839" y="-23" type="curve" smooth="yes"/>
      <point x="881" y="-23"/>
      <point x="913" y="-20"/>
      <point x="935" y="-16" type="curve"/>
      <point x="1107" y="359" type="line" smooth="yes"/>
      <point x="1121" y="390"/>
      <point x="1150" y="422"/>
      <point x="1176" y="428" type="curve"/>
      <point x="1190" y="432"/>
      <point x="1205" y="436"/>
      <point x="1205" y="446" type="curve" smooth="yes"/>
      <point x="1205" y="454"/>
      <point x="1190" y="455"/>
      <point x="1179" y="455" type="curve" smooth="yes"/>
      <point x="1151" y="455"/>
      <point x="1154" y="450"/>
      <point x="1107" y="450" type="curve" smooth="yes"/>
      <point x="1070" y="450"/>
      <point x="1060" y="455"/>
      <point x="1022" y="455" type="curve" smooth="yes"/>
      <point x="1013" y="455"/>
      <point x="998" y="454"/>
      <point x="998" y="446" type="curve" smooth="yes"/>
      <point x="998" y="436"/>
      <point x="1012" y="432"/>
      <point x="1026" y="428" type="curve" smooth="yes"/>
      <point x="1048" y="423"/>
      <point x="1068" y="407"/>
      <point x="1068" y="383" type="curve" smooth="yes"/>
      <point x="1068" y="374"/>
      <point x="1066" y="355"/>
      <point x="1061" y="342" type="curve" smooth="yes"/>
      <point x="948" y="110" type="line" smooth="yes"/>
      <point x="944" y="102"/>
      <point x="942" y="99"/>
      <point x="939" y="99" type="curve" smooth="yes"/>
      <point x="936" y="99"/>
      <point x="932" y="103"/>
      <point x="928" y="110" type="curve" smooth="yes"/>
      <point x="815" y="360" type="line" smooth="yes"/>
      <point x="811" y="371"/>
      <point x="809" y="380"/>
      <point x="809" y="388" type="curve" smooth="yes"/>
      <point x="809" y="416"/>
      <point x="830" y="423"/>
      <point x="849" y="428" type="curve" smooth="yes"/>
      <point x="863" y="432"/>
      <point x="879" y="436"/>
      <point x="879" y="446" type="curve" smooth="yes"/>
      <point x="879" y="454"/>
      <point x="851" y="455"/>
      <point x="837" y="455" type="curve" smooth="yes"/>
      <point x="791" y="455"/>
      <point x="750" y="450"/>
      <point x="682" y="450" type="curve" smooth="yes"/>
      <point x="605" y="450"/>
      <point x="578" y="455"/>
      <point x="541" y="455" type="curve" smooth="yes"/>
      <point x="524" y="455"/>
      <point x="499" y="454"/>
      <point x="499" y="446" type="curve" smooth="yes"/>
      <point x="499" y="436"/>
      <point x="514" y="432"/>
      <point x="529" y="428" type="curve" smooth="yes"/>
      <point x="556" y="420"/>
      <point x="584" y="399"/>
      <point x="584" y="369" type="curve" smooth="yes"/>
      <point x="584" y="353"/>
      <point x="582" y="335"/>
      <point x="572" y="314" type="curve" smooth="yes"/>
      <point x="468" y="101" type="line" smooth="yes"/>
      <point x="467" y="98"/>
      <point x="465" y="97"/>
      <point x="463" y="97" type="curve" smooth="yes"/>
      <point x="460" y="97"/>
      <point x="459" y="98"/>
      <point x="458" y="101" type="curve" smooth="yes"/>
      <point x="340" y="360" type="line" smooth="yes"/>
      <point x="337" y="367"/>
      <point x="335" y="376"/>
      <point x="335" y="385" type="curve" smooth="yes"/>
      <point x="335" y="405"/>
      <point x="345" y="424"/>
      <point x="363" y="428" type="curve"/>
      <point x="377" y="432"/>
      <point x="393" y="436"/>
      <point x="393" y="446" type="curve" smooth="yes"/>
      <point x="393" y="454"/>
      <point x="361" y="455"/>
      <point x="351" y="455" type="curve" smooth="yes"/>
      <point x="292" y="455"/>
      <point x="243" y="450"/>
      <point x="191" y="450" type="curve" smooth="yes"/>
      <point x="136" y="450"/>
      <point x="102" y="455"/>
      <point x="49" y="455" type="curve" smooth="yes"/>
      <point x="34" y="455"/>
      <point x="7" y="454"/>
      <point x="7" y="446" type="curve" smooth="yes"/>
      <point x="7" y="436"/>
      <point x="22" y="432"/>
      <point x="36" y="428" type="curve"/>
      <point x="62" y="422"/>
      <point x="86" y="406"/>
      <point x="97" y="379" type="curve" smooth="yes"/>
      <point x="274" y="-16" type="line"/>
      <point x="286" y="-20"/>
      <point x="324" y="-23"/>
      <point x="359" y="-23" type="curve" smooth="yes"/>
      <point x="395" y="-23"/>
      <point x="432" y="-20"/>
    </contour>
  </outline>
</glyph>
<glyph name="x" format="1">
  <advance width="721"/>
  <unicode hex="0078"/>
  <outline>
    <contour>
      <point x="126" y="2" type="curve" smooth="yes"/>
      <point x="148" y="2"/>
      <point x="178" y="-3"/>
      <point x="191" y="-3" type="curve" smooth="yes"/>
      <point x="198" y="-3"/>
      <point x="222" y="1"/>
      <point x="222" y="21" type="curve" smooth="yes"/>
      <point x="222" y="39"/>
      <point x="211" y="44"/>
      <point x="198" y="47" type="curve"/>
      <point x="188" y="49"/>
      <point x="182" y="57"/>
      <point x="182" y="65" type="curve" smooth="yes"/>
      <point x="182" y="73"/>
      <point x="189" y="82"/>
      <point x="196" y="92" type="curve" smooth="yes"/>
      <point x="272" y="186" type="line" smooth="yes"/>
      <point x="274" y="190"/>
      <point x="279" y="191"/>
      <point x="282" y="186" type="curve" smooth="yes"/>
      <point x="352" y="92" type="line" smooth="yes"/>
      <point x="359" y="83"/>
      <point x="362" y="76"/>
      <point x="362" y="70" type="curve" smooth="yes"/>
      <point x="362" y="58"/>
      <point x="352" y="52"/>
      <point x="336" y="48" type="curve" smooth="yes"/>
      <point x="316" y="40"/>
      <point x="305" y="37"/>
      <point x="305" y="18" type="curve" smooth="yes"/>
      <point x="305" y="3"/>
      <point x="320" y="-3"/>
      <point x="350" y="-3" type="curve" smooth="yes"/>
      <point x="412" y="-3"/>
      <point x="448" y="6"/>
      <point x="506" y="6" type="curve" smooth="yes"/>
      <point x="595" y="6"/>
      <point x="593" y="-3"/>
      <point x="676" y="-3" type="curve" smooth="yes"/>
      <point x="697" y="-3"/>
      <point x="717" y="2"/>
      <point x="717" y="18" type="curve" smooth="yes"/>
      <point x="717" y="33"/>
      <point x="706" y="42"/>
      <point x="684" y="47" type="curve" smooth="yes"/>
      <point x="654" y="55"/>
      <point x="622" y="61"/>
      <point x="602" y="91" type="curve" smooth="yes"/>
      <point x="501" y="228" type="line" smooth="yes"/>
      <point x="497" y="233"/>
      <point x="497" y="239"/>
      <point x="500" y="242" type="curve" smooth="yes"/>
      <point x="589" y="363" type="line" smooth="yes"/>
      <point x="610" y="394"/>
      <point x="644" y="407"/>
      <point x="663" y="413" type="curve"/>
      <point x="678" y="418"/>
      <point x="691" y="425"/>
      <point x="691" y="442" type="curve" smooth="yes"/>
      <point x="691" y="456"/>
      <point x="675" y="458"/>
      <point x="665" y="458" type="curve" smooth="yes"/>
      <point x="643" y="458"/>
      <point x="636" y="449"/>
      <point x="586" y="449" type="curve" smooth="yes"/>
      <point x="565" y="449"/>
      <point x="537" y="454"/>
      <point x="522" y="454" type="curve" smooth="yes"/>
      <point x="514" y="454"/>
      <point x="491" y="450"/>
      <point x="491" y="430" type="curve" smooth="yes"/>
      <point x="491" y="412"/>
      <point x="503" y="407"/>
      <point x="516" y="403" type="curve"/>
      <point x="528" y="401"/>
      <point x="534" y="394"/>
      <point x="534" y="387" type="curve" smooth="yes"/>
      <point x="534" y="379"/>
      <point x="525" y="369"/>
      <point x="517" y="358" type="curve"/>
      <point x="461" y="290" type="line" smooth="yes"/>
      <point x="457" y="286"/>
      <point x="453" y="285"/>
      <point x="449" y="290" type="curve" smooth="yes"/>
      <point x="393" y="360" type="line"/>
      <point x="384" y="369"/>
      <point x="384" y="377"/>
      <point x="384" y="382" type="curve" smooth="yes"/>
      <point x="384" y="395"/>
      <point x="397" y="401"/>
      <point x="408" y="404" type="curve" smooth="yes"/>
      <point x="425" y="408"/>
      <point x="434" y="414"/>
      <point x="434" y="433" type="curve" smooth="yes"/>
      <point x="434" y="448"/>
      <point x="404" y="454"/>
      <point x="387" y="454" type="curve" smooth="yes"/>
      <point x="322" y="454"/>
      <point x="312" y="445"/>
      <point x="251" y="445" type="curve" smooth="yes"/>
      <point x="158" y="445"/>
      <point x="163" y="454"/>
      <point x="79" y="454" type="curve" smooth="yes"/>
      <point x="61" y="454"/>
      <point x="32" y="449"/>
      <point x="32" y="433" type="curve" smooth="yes"/>
      <point x="32" y="418"/>
      <point x="43" y="409"/>
      <point x="64" y="403" type="curve" smooth="yes"/>
      <point x="95" y="396"/>
      <point x="118" y="389"/>
      <point x="140" y="360" type="curve" smooth="yes"/>
      <point x="229" y="250" type="line" smooth="yes"/>
      <point x="234" y="244"/>
      <point x="235" y="238"/>
      <point x="228" y="232" type="curve"/>
      <point x="121" y="88" type="line" smooth="yes"/>
      <point x="95" y="57"/>
      <point x="60" y="45"/>
      <point x="41" y="39" type="curve" smooth="yes"/>
      <point x="26" y="33"/>
      <point x="13" y="26"/>
      <point x="13" y="9" type="curve" smooth="yes"/>
      <point x="13" y="-5"/>
      <point x="30" y="-7"/>
      <point x="40" y="-7" type="curve" smooth="yes"/>
      <point x="63" y="-7"/>
      <point x="77" y="2"/>
    </contour>
  </outline>
</glyph>
<glyph name="z" format="1">
  <advance width="666"/>
  <unicode hex="007A"/>
  <outline>
    <contour>
      <point x="200" y="0" type="curve" smooth="yes"/>
      <point x="409" y="0"/>
      <point x="548" y="-5"/>
      <point x="604" y="-5" type="curve" smooth="yes"/>
      <point x="614" y="-5"/>
      <point x="622" y="0"/>
      <point x="624" y="9" type="curve" smooth="yes"/>
      <point x="630" y="25"/>
      <point x="659" y="133"/>
      <point x="659" y="141" type="curve" smooth="yes"/>
      <point x="659" y="162"/>
      <point x="634" y="163"/>
      <point x="624" y="148" type="curve" smooth="yes"/>
      <point x="605" y="121"/>
      <point x="591" y="100"/>
      <point x="573" y="81" type="curve" smooth="yes"/>
      <point x="558" y="65"/>
      <point x="544" y="60"/>
      <point x="519" y="60" type="curve" smooth="yes"/>
      <point x="343" y="60" type="line" smooth="yes"/>
      <point x="332" y="60"/>
      <point x="323" y="65"/>
      <point x="332" y="75" type="curve" smooth="yes"/>
      <point x="589" y="373" type="line" smooth="yes"/>
      <point x="606" y="393"/>
      <point x="621" y="408"/>
      <point x="637" y="423" type="curve"/>
      <point x="647" y="435"/>
      <point x="636" y="455"/>
      <point x="617" y="455" type="curve" smooth="yes"/>
      <point x="509" y="453"/>
      <point x="399" y="452"/>
      <point x="267" y="452" type="curve" smooth="yes"/>
      <point x="250" y="452"/>
      <point x="224" y="451"/>
      <point x="196" y="451" type="curve" smooth="yes"/>
      <point x="161" y="451"/>
      <point x="125" y="452"/>
      <point x="113" y="457" type="curve" smooth="yes"/>
      <point x="102" y="462"/>
      <point x="90" y="466"/>
      <point x="84" y="466" type="curve" smooth="yes"/>
      <point x="77" y="466"/>
      <point x="63" y="458"/>
      <point x="63" y="448" type="curve" smooth="yes"/>
      <point x="63" y="423"/>
      <point x="44" y="360"/>
      <point x="39" y="342" type="curve" smooth="yes"/>
      <point x="29" y="317"/>
      <point x="62" y="313"/>
      <point x="82" y="331" type="curve" smooth="yes"/>
      <point x="98" y="345"/>
      <point x="111" y="365"/>
      <point x="126" y="379" type="curve" smooth="yes"/>
      <point x="133" y="386"/>
      <point x="153" y="397"/>
      <point x="171" y="396" type="curve" smooth="yes"/>
      <point x="319" y="393" type="line" smooth="yes"/>
      <point x="338" y="393"/>
      <point x="334" y="387"/>
      <point x="331" y="383" type="curve"/>
      <point x="246" y="282"/>
      <point x="165" y="191"/>
      <point x="82" y="96" type="curve" smooth="yes"/>
      <point x="60" y="69"/>
      <point x="26" y="28"/>
      <point x="26" y="25" type="curve" smooth="yes"/>
      <point x="26" y="12"/>
      <point x="37" y="-5"/>
      <point x="50" y="-5" type="curve" smooth="yes"/>
      <point x="82" y="-5"/>
      <point x="147" y="0"/>
    </contour>
  </outline>
</glyph>
